<?xml version="1.0" standalone="no"?>
<!DOCTYPE svg PUBLIC "-//W3C//DTD SVG 20010904//EN"
 "http://www.w3.org/TR/2001/REC-SVG-20010904/DTD/svg10.dtd">
<svg version="1.0" xmlns="http://www.w3.org/2000/svg"
 width="512.000000pt" height="512.000000pt" viewBox="0 0 512.000000 512.000000"
 preserveAspectRatio="xMidYMid meet">
<metadata>
Created by potrace 1.11, written by Peter Selinger 2001-2013
</metadata>
<g transform="translate(0.000000,512.000000) scale(0.100000,-0.100000)"
fill="#000000" stroke="none">
<path d="M2551 5098 c-4 -13 -11 -52 -15 -87 -9 -95 -39 -129 -128 -145 -82
-15 -143 37 -186 159 l-21 60 -48 -3 c-78 -4 -77 -2 -70 -99 8 -111 -5 -146
-65 -173 -24 -11 -65 -20 -91 -20 -43 0 -52 4 -90 43 -23 24 -53 67 -67 96
-26 57 -30 58 -108 25 -34 -14 -34 -15 -28 -57 4 -23 14 -62 22 -86 19 -56 11
-90 -29 -129 -54 -52 -121 -66 -175 -38 -15 8 -54 42 -87 76 l-59 63 -46 -24
c-57 -30 -60 -51 -21 -126 36 -68 38 -99 11 -153 -37 -73 -117 -107 -181 -76
-19 9 -59 36 -89 61 -30 25 -59 45 -65 45 -18 0 -85 -61 -85 -77 0 -8 23 -47
50 -86 71 -101 65 -158 -24 -228 -49 -38 -92 -36 -178 10 -43 23 -83 41 -91
41 -7 0 -29 -21 -47 -47 l-34 -47 61 -55 c71 -66 83 -86 83 -139 0 -44 -29
-93 -73 -126 -37 -27 -116 -25 -185 4 -63 27 -83 24 -104 -20 -29 -60 -24 -74
46 -119 35 -23 71 -50 81 -61 45 -50 19 -169 -47 -210 -29 -19 -44 -21 -113
-16 -44 3 -89 8 -101 11 -18 6 -24 0 -38 -34 -30 -76 -26 -84 69 -126 100 -45
119 -68 118 -142 -1 -106 -62 -153 -198 -153 -40 0 -77 -4 -80 -10 -3 -5 -9
-32 -12 -60 l-6 -50 44 -19 c24 -10 65 -22 91 -25 78 -11 127 -82 115 -168
-10 -72 -52 -101 -206 -139 l-43 -10 4 -56 c3 -30 10 -58 17 -63 7 -4 49 -10
93 -13 57 -4 89 -11 107 -24 56 -42 78 -136 45 -193 -16 -27 -81 -71 -155
-106 l-37 -17 14 -49 c7 -28 15 -52 17 -54 8 -8 91 -8 149 0 l58 9 39 -40 c46
-46 67 -106 51 -150 -15 -37 -63 -87 -123 -125 -52 -33 -53 -41 -18 -103 22
-38 64 -44 127 -16 75 34 110 29 160 -23 47 -49 62 -102 44 -150 -5 -15 -37
-56 -70 -90 l-60 -63 31 -46 c38 -57 52 -59 130 -11 32 19 73 37 91 40 68 10
158 -72 158 -143 0 -38 -12 -64 -64 -142 l-37 -54 38 -39 c20 -21 45 -38 54
-38 10 0 46 23 80 50 35 28 74 53 87 57 40 10 97 -14 136 -57 47 -52 48 -97 4
-193 -36 -77 -34 -87 24 -120 31 -19 39 -20 61 -8 13 7 41 35 61 62 20 28 52
57 70 65 46 22 108 4 158 -46 34 -34 38 -43 38 -90 0 -29 -8 -74 -17 -99 -9
-26 -14 -54 -11 -63 4 -8 30 -23 59 -32 l53 -18 20 24 c10 12 30 47 43 76 28
60 61 82 125 82 57 0 108 -27 133 -70 16 -28 20 -53 20 -124 0 -85 1 -89 25
-98 13 -5 40 -8 59 -6 35 3 36 5 58 78 12 40 33 85 46 98 47 47 154 47 203 1
39 -36 55 -75 62 -148 l7 -66 57 -3 c68 -4 72 2 82 98 7 74 26 106 77 133 48
26 130 19 165 -14 31 -28 64 -90 64 -118 0 -41 22 -71 51 -71 34 0 81 17 91
33 4 7 5 44 2 84 -9 97 4 125 69 158 73 36 118 33 165 -9 21 -19 51 -60 66
-90 19 -38 34 -56 47 -56 29 0 99 31 99 44 0 6 -7 48 -17 92 -20 98 -10 132
46 169 84 55 146 41 235 -56 30 -33 58 -59 62 -59 13 0 94 55 94 64 0 5 -16
40 -35 78 -28 54 -34 76 -29 102 14 79 77 136 149 136 43 0 83 -20 151 -76 23
-19 44 -34 48 -34 12 0 86 72 86 84 0 7 -21 41 -47 76 -55 73 -60 115 -24 174
53 86 127 97 240 35 l75 -42 33 38 c18 21 33 45 33 53 0 9 -29 46 -65 83 -56
57 -65 72 -65 103 0 45 30 107 66 135 42 33 81 34 173 7 94 -29 92 -30 127 42
15 33 15 35 -7 59 -13 13 -46 36 -72 51 -49 26 -77 64 -77 103 0 44 24 99 56
130 29 28 41 32 86 33 29 1 77 -3 106 -7 l53 -8 14 35 c8 20 15 48 15 64 0 26
-6 32 -47 50 -27 11 -58 23 -70 26 -12 4 -34 21 -48 37 -44 53 -28 175 28 212
31 20 115 36 161 30 50 -7 66 12 66 78 0 45 -2 47 -37 62 -21 8 -59 17 -84 21
-70 10 -109 61 -109 141 0 90 37 125 165 155 l70 16 0 58 c0 39 -5 60 -15 66
-8 6 -48 10 -88 10 -44 0 -84 6 -101 15 -35 18 -61 78 -61 142 0 40 5 51 38
82 21 20 64 50 95 66 62 33 65 40 45 108 l-12 39 -65 -5 c-36 -4 -77 -9 -91
-12 -41 -9 -88 27 -117 91 -23 50 -24 61 -14 95 12 40 66 94 134 132 20 11 37
24 37 28 0 21 -42 100 -55 105 -9 4 -48 -5 -88 -20 -40 -14 -84 -26 -98 -26
-55 0 -122 83 -121 150 1 51 14 74 79 141 l55 57 -31 45 c-17 26 -36 49 -41
52 -5 3 -43 -12 -83 -35 -83 -45 -123 -50 -173 -19 -91 56 -96 145 -15 263 17
25 31 51 31 58 0 19 -62 78 -82 78 -9 0 -38 -20 -64 -43 -62 -55 -84 -67 -127
-67 -66 0 -147 80 -147 145 0 18 14 65 31 105 17 40 28 78 25 85 -2 8 -25 25
-49 39 l-44 26 -35 -32 c-19 -18 -45 -48 -57 -66 -42 -61 -102 -71 -175 -28
-75 44 -95 130 -55 239 17 48 7 64 -52 81 -61 18 -59 20 -110 -80 -48 -95
-101 -113 -204 -70 -55 23 -69 57 -75 171 l-5 100 -50 12 c-58 15 -68 8 -86
-62 -27 -106 -67 -146 -146 -147 -93 0 -143 45 -163 152 -6 30 -13 67 -16 83
-5 25 -9 27 -60 27 -47 0 -56 -3 -63 -22z m54 -399 c-265 -48 -423 -86 -487
-119 -48 -26 -109 -83 -129 -123 -18 -34 -20 -51 -15 -106 14 -140 37 -111
-192 -237 -112 -62 -226 -126 -254 -143 -27 -17 -53 -31 -58 -31 -5 0 -18 16
-30 35 -27 44 -77 83 -118 91 -94 19 -287 -83 -548 -292 -53 -41 -97 -74 -99
-72 -16 15 442 501 570 604 166 135 387 253 569 306 129 37 327 76 441 87 127
12 417 12 350 0z m925 -147 c270 -152 564 -371 715 -534 118 -127 260 -363
332 -553 63 -166 140 -451 157 -585 l6 -45 -14 35 c-8 19 -47 116 -86 215 -77
195 -106 248 -172 312 -82 80 -167 94 -267 44 l-57 -29 -115 135 c-63 74 -125
150 -139 169 -14 18 -52 65 -84 104 l-59 71 35 37 c54 57 68 83 68 128 0 101
-133 273 -370 477 -58 50 -112 97 -120 105 -20 19 24 -3 170 -86z m-680 -147
c179 -29 383 -93 520 -163 249 -127 310 -183 318 -292 8 -106 -26 -161 -155
-256 -123 -92 -182 -184 -183 -284 0 -166 102 -277 266 -288 89 -6 124 10 251
112 172 138 203 152 294 125 110 -34 173 -150 235 -439 60 -277 35 -661 -61
-956 -34 -104 -108 -262 -168 -358 -18 -28 -40 -68 -50 -87 -29 -57 -148 -199
-225 -270 -125 -114 -263 -183 -367 -183 -115 0 -166 48 -210 202 -31 108 -61
166 -107 208 -61 55 -121 78 -204 78 -65 0 -77 -3 -130 -36 -33 -19 -73 -54
-91 -77 -64 -82 -68 -163 -18 -318 20 -59 41 -137 47 -173 19 -113 -16 -186
-116 -238 -48 -25 -59 -27 -166 -25 -298 5 -622 92 -881 238 -121 68 -326 221
-368 274 -63 79 -76 152 -42 226 30 63 88 113 194 167 164 82 238 171 238 285
0 144 -94 261 -235 293 -69 15 -123 -1 -294 -87 -134 -69 -159 -78 -205 -78
-71 1 -124 30 -164 89 -55 81 -72 184 -72 436 -1 331 55 575 190 840 86 168
115 218 168 290 139 190 209 245 311 244 107 -1 159 -47 246 -216 25 -48 63
-107 85 -132 182 -207 515 -75 497 197 -4 65 -27 122 -108 263 -75 131 -74
237 1 313 23 23 60 46 87 55 132 44 465 54 672 21z m-860 -544 c73 -51 93
-152 44 -211 -93 -110 -253 -58 -256 84 -1 61 27 105 82 134 50 25 87 23 130
-7z m1720 -333 c95 -66 90 -195 -10 -250 -67 -37 -147 -11 -198 63 -19 27 -23
43 -19 82 4 50 23 78 72 108 43 27 113 25 155 -3z m-3233 -1243 c26 -110 81
-235 126 -283 53 -58 139 -75 236 -46 29 8 54 14 56 12 1 -2 23 -41 48 -88 24
-47 92 -168 150 -269 l105 -184 -46 -31 c-69 -47 -87 -77 -86 -145 2 -108 94
-274 278 -501 47 -57 83 -106 81 -109 -3 -2 -53 35 -112 83 -444 358 -722 728
-812 1076 -71 277 -91 414 -96 660 l-5 195 25 -130 c14 -71 37 -179 52 -240z
m973 -264 c53 -28 80 -74 80 -137 0 -58 -27 -102 -81 -129 -59 -31 -154 -2
-185 57 -69 132 60 277 186 209z m3122 -26 c9 -21 8 -28 -7 -45 -32 -36 -85
-20 -85 25 0 49 71 65 92 20z m-1520 -595 c75 -21 113 -102 83 -178 -46 -114
-217 -110 -254 7 -12 39 -12 48 5 90 15 36 28 51 64 69 51 25 52 25 102 12z
m1187 -256 c-37 -45 -349 -295 -459 -368 -268 -179 -469 -269 -705 -316 -217
-44 -611 -37 -890 15 l-70 13 150 2 c83 1 161 3 175 5 14 2 59 6 100 9 173 13
292 83 320 186 6 23 8 66 4 99 l-6 58 73 26 c41 15 106 38 144 52 172 63 347
125 354 125 4 0 13 -16 20 -35 19 -54 79 -112 125 -120 51 -10 169 14 271 54
44 18 152 72 240 121 88 48 162 89 164 89 2 1 -3 -6 -10 -15z"/>
</g>
</svg>
